<?xml version="1.0" ?><svg data-name="Layer 1" id="Layer_1" viewBox="0 0 512 512" xmlns="http://www.w3.org/2000/svg"><path d="M335,156.17H177A20.85,20.85,0,0,0,156.17,177V335A20.85,20.85,0,0,0,177,355.83H335A20.85,20.85,0,0,0,355.83,335V177A20.85,20.85,0,0,0,335,156.17ZM346,335a11,11,0,0,1-11,11H177a11,11,0,0,1-11-11V177a11,11,0,0,1,11-11H335a11,11,0,0,1,11,11Z"/><path d="M172,140.4H340a4.93,4.93,0,0,0,0-9.86H323.83V88.41a4.93,4.93,0,0,0-9.86,0v42.13H292V66.28a4.93,4.93,0,0,0-9.86,0v64.26h-22V88.41a4.93,4.93,0,0,0-9.86,0v42.13h-22V66.28a4.93,4.93,0,0,0-9.86,0v64.26h-22V88.41a4.93,4.93,0,0,0-9.86,0v42.13H172a4.93,4.93,0,1,0,0,9.86Z"/><path d="M340,371.6H172a4.93,4.93,0,0,0,0,9.86h16.18v42.13a4.93,4.93,0,0,0,9.86,0V381.46h22v64.26a4.93,4.93,0,0,0,9.86,0V381.46h22v42.13a4.93,4.93,0,0,0,9.86,0V381.46h22v64.26a4.93,4.93,0,0,0,9.86,0V381.46h22v42.13a4.93,4.93,0,0,0,9.86,0V381.46H340a4.93,4.93,0,1,0,0-9.86Z"/><path d="M445.71,282.1H381.45v-22H423.6a4.93,4.93,0,0,0,0-9.85H381.45v-22h64.26a4.93,4.93,0,1,0,0-9.85H381.45v-22H423.6a4.93,4.93,0,0,0,0-9.85H381.45V172a4.93,4.93,0,0,0-9.86,0V340a4.93,4.93,0,0,0,9.86,0V323.83H423.6a4.93,4.93,0,0,0,0-9.85H381.45V292h64.26a4.93,4.93,0,1,0,0-9.85Z"/><path d="M135.47,167.06a4.92,4.92,0,0,0-4.93,4.92v16.19H88.4a4.93,4.93,0,0,0,0,9.85h42.14v22H66.29a4.93,4.93,0,1,0,0,9.85h64.25v22H88.4a4.93,4.93,0,0,0,0,9.85h42.14v22H66.29a4.93,4.93,0,1,0,0,9.85h64.25v22H88.4a4.93,4.93,0,0,0,0,9.85h42.14V340a4.93,4.93,0,0,0,9.85,0V172A4.92,4.92,0,0,0,135.47,167.06Z"/><path d="M241.79,207.56c-1.38-3.93-7.9-3.93-9.29,0l-22,62.38-2.45,6.95,0,.07-8.52,24.2a4.91,4.91,0,0,0,3,6.28,4.81,4.81,0,0,0,1.64.29,4.94,4.94,0,0,0,4.65-3.29l7.39-21h41.9l7.4,21a4.93,4.93,0,0,0,9.29-3.28Zm-22.11,66,3.26-9.24a.56.56,0,0,1,0-.12L237.15,224l17.47,49.58Z"/><path d="M307.84,204.27a4.93,4.93,0,0,0-4.93,4.93v93.6a4.93,4.93,0,1,0,9.85,0V209.2A4.93,4.93,0,0,0,307.84,204.27Z"/></svg>