<?xml version="1.0" ?><svg data-name="Layer 1" id="Layer_1" viewBox="0 0 512 512" xmlns="http://www.w3.org/2000/svg"><path d="M256,123.86a39.61,39.61,0,0,0-39.55,39.56,4.93,4.93,0,1,0,9.85,0,29.73,29.73,0,0,1,29.7-29.7,4.93,4.93,0,1,0,0-9.86Z"/><path d="M219.33,381.45h-29a4.93,4.93,0,0,0,0,9.86h29a4.93,4.93,0,0,0,0-9.86Z"/><path d="M204.84,403.06H190.36a4.93,4.93,0,0,0,0,9.86h14.48a4.93,4.93,0,0,0,0-9.86Z"/><path d="M360.49,286.48H298.61V262.34H350a4.93,4.93,0,0,0,4.93-4.93v-20h16.44a28.27,28.27,0,0,0,28.24-28.23v-35a28.28,28.28,0,0,0-23.31-27.79V91.93a4.93,4.93,0,0,0-9.86,0v54H353.38a98.93,98.93,0,0,0-196.3,17.48v94a4.93,4.93,0,0,0,4.93,4.93h51.38v24.14H151.51a61.12,61.12,0,0,0-61,61,4.93,4.93,0,0,0,4.93,4.93H112v90.1a4.93,4.93,0,0,0,9.86,0V413.09h34.75a290.27,290.27,0,0,0,.45,29.8,4.93,4.93,0,0,0,4.92,4.6h.32a4.93,4.93,0,0,0,4.59-5.24c-2.42-37.75,2.89-61.75,6.67-73.47C221.1,338,225.13,309,224.16,296.34h26.91V442.56a4.93,4.93,0,0,0,9.86,0V296.34h26.91c-1,12.62,3.06,41.64,50.57,72.43,3.78,11.72,9.09,35.72,6.67,73.47a4.93,4.93,0,0,0,4.59,5.24H350a4.93,4.93,0,0,0,4.92-4.6,290.27,290.27,0,0,0,.45-29.8h34.75v29.47a4.93,4.93,0,0,0,9.86,0v-90.1h16.64a4.93,4.93,0,0,0,4.93-4.93A61.12,61.12,0,0,0,360.49,286.48Zm-5.57-130.69h16.44a18.39,18.39,0,0,1,18.38,18.38v35a18.39,18.39,0,0,1-18.38,18.38H354.92V155.79Zm-188,7.63a89.07,89.07,0,0,1,178.14,0v89.06H260.93V226.06a62.83,62.83,0,1,0-9.86,0v26.42H166.93Zm89.07,53a53,53,0,1,1,53-53A53,53,0,0,1,256,216.39Zm32.75,45.95v24.14h-65.5V262.34ZM166.82,361.4a4.94,4.94,0,0,0-2,2.57c-3,8.76-6.15,21.64-7.57,39.26H121.89V352.46H179.7C175.83,355.4,171.56,358.38,166.82,361.4Zm24.54-18.8H100.54a51.27,51.27,0,0,1,51-46.26h62.78C215.09,303.45,214.09,321.07,191.36,342.6Zm198.75,60.63H354.77c-1.42-17.62-4.57-30.5-7.57-39.26a4.94,4.94,0,0,0-2-2.57c-4.74-3-9-6-12.88-8.94h57.81ZM320.63,342.6c-22.73-21.53-23.72-39.15-22.93-46.26h62.79a51.27,51.27,0,0,1,51,46.26Z"/><path d="M321.64,381.45h-29a4.93,4.93,0,0,0,0,9.86h29a4.93,4.93,0,0,0,0-9.86Z"/><path d="M321.64,403.06H307.16a4.93,4.93,0,0,0,0,9.86h14.48a4.93,4.93,0,0,0,0-9.86Z"/></svg>