<?xml version="1.0" ?><svg data-name="Layer 1" id="Layer_1" viewBox="0 0 512 512" xmlns="http://www.w3.org/2000/svg"><path d="M430.83,283.69l-15.31-28.08V225.07c6.71-9.13,40.35-58.75,20.45-110.77-10.38-27.17-29.21-46.95-53-55.72-24.2-8.9-51.85-6-77.84,8.26-48,26.29-39.84,73.79-37.75,82.9l-11.26,38.61a11.15,11.15,0,0,0,10.7,14.26H279l5.27,20.27a26.05,26.05,0,0,0,31.31,18.67l31-7.65v45.27l-23.46,41.24-.26.32-6.42,6.66-.06.06L254.14,392l-106-48a69.52,69.52,0,0,0-28.81-6.22H116l-8.36-37.3a21.76,21.76,0,1,0-42.58,9l8.76,41.48a27.32,27.32,0,0,0-4.08,14.41V382a27.63,27.63,0,0,0,15.92,25l9.43,44.67a5,5,0,1,0,9.82-2.08l-8.44-40,.85,0h24.49l9.44,42.14a5,5,0,0,0,4.89,3.92,5.22,5.22,0,0,0,1.1-.12,5,5,0,0,0,3.8-6l-8.87-39.61a17.62,17.62,0,0,1,3.37,1L242.17,455.2a3.8,3.8,0,0,0,.47.18,41.63,41.63,0,0,0,42-6.25l4.79-3.9h0L319.19,421V445.4a5,5,0,0,0,10.05,0V412.88l43.32-35.19a5.18,5.18,0,0,0,1.26-1l21.53-17.49c5.67-6.58,12.07-24.16-4.25-43.62-9.27-11.05-19.69-16.39-31.08-16.26a38.53,38.53,0,0,0-15.76,4L355,284.51l53.2-21.3,13.66,25c10.18,21.48,15.51,49.58,15.51,66.24V445.4a5,5,0,0,0,10,0V354.49C447.44,336.71,441.78,306.77,430.83,283.69ZM287.11,434.17l-25.32-35.7,60.27-62.69c4.69-.23,19.61-.21,30.49,8.93,7.08,5.94,11.22,14.81,12.31,26.38Zm-46.52,9.5L144.92,404l25.21-39,79.42,36Zm-79.71-82.92-19.43,30.06-2.6-39.76c1.72.6,3.42,1.27,5.1,2ZM76.5,298.51a11.72,11.72,0,0,1,21.3,4l7.88,35.16H97.29a27.32,27.32,0,0,0-15.07,4.51l-7.37-34.89A11.68,11.68,0,0,1,76.5,298.51ZM79.75,382V365.3a17.56,17.56,0,0,1,17.54-17.54h22a59.23,59.23,0,0,1,9.34.73L132,399.74a28.16,28.16,0,0,0-3.19-.19H97.29A17.56,17.56,0,0,1,79.75,382Zm170.34,65.3,7.76-37,21.45,30.24-1,.82A31.69,31.69,0,0,1,250.09,447.31Zm110.17-138c8.14,0,15.94,4.08,23.15,12.67,14.68,17.52,4.84,30,5,30l-14.45,11.72c-2.17-11.24-7.17-20.2-14.92-26.71-8.87-7.46-19.53-10.12-27.56-11C334.62,322.3,346.35,309.67,360.26,309.34ZM392,155.81H402.5a15.76,15.76,0,0,0,29,2.05c-2.22,21.39-11.09,40-17.63,51.22A226.34,226.34,0,0,0,407,181.69C403.38,170.28,398.17,162,392,155.81Zm19.74-5a5.72,5.72,0,1,1,5.73,5.72A5.73,5.73,0,0,1,411.71,150.78Zm11.44-34.69a5.72,5.72,0,1,1-5.71-5.72A5.72,5.72,0,0,1,423.15,116.09Zm-5.24-15.75h-.47a15.78,15.78,0,0,0-14.94,10.74H378.87a15.76,15.76,0,1,0,0,10H402.5a15.74,15.74,0,0,0,26.82,5.31A83.88,83.88,0,0,1,432,144.7a15.75,15.75,0,0,0-29.47,1.06H378c-9.91-5.1-20.85-7.52-31.18-9.8-6-1.33-11.67-2.58-17-4.29-8.69-2.79-14.61-11.92-18.54-22.28h19.17a5,5,0,0,0,3.55-1.47l18.3-18.29h13.55a15.76,15.76,0,1,0,27.29-14.81A80.86,80.86,0,0,1,417.91,100.34Zm-48.26,15.75a5.72,5.72,0,1,1-5.72-5.72A5.73,5.73,0,0,1,369.65,116.09ZM386.52,84.6a5.72,5.72,0,1,1-5.72-5.72A5.73,5.73,0,0,1,386.52,84.6Zm-76.61-8.94C333.32,62.83,358,60.12,379.46,68c.74.27,1.47.56,2.2.85l-.86,0a15.78,15.78,0,0,0-14.94,10.74H350.23a5,5,0,0,0-3.55,1.47l-18.3,18.3H308.14a127.71,127.71,0,0,1-3.48-20.55Q307.15,77.18,309.91,75.66Zm3.21,156.13a15.92,15.92,0,0,1-19.19-11.43l-1.32-5.09h13.94a5,5,0,1,0,0-10H290l-2.31-8.91a5,5,0,0,0-4.86-3.76H266.78l-1.06-1.4,10.59-36.33h33.78a5,5,0,1,0,0-10H276.56c-1.79-9.86-4.28-37.77,18.81-58.85,2.15,16.23,9.18,48.15,31.38,55.29,5.78,1.86,11.95,3.22,17.92,4.54,10.4,2.29,20.52,4.53,29.31,9.21a4.54,4.54,0,0,0,.68.38,44.82,44.82,0,0,1,19.64,21.36l-18.17,39.53Zm67.76-6.36a5,5,0,0,0,3.36-2.78l14.84-32.28c6.36,21.92,6.4,32.86,6.4,33V253.5l-48.92,19.58V231.42Z"/><path d="M107.41,89.63h92.17a5,5,0,0,0,0-10H107.41a5,5,0,0,0,0,10Z"/><path d="M107.41,115.64H139a5,5,0,0,0,0-10H107.41a5,5,0,0,0,0,10Z"/><path d="M158.05,105.6a5,5,0,1,0,0,10h15.81a5,5,0,0,0,0-10Z"/><path d="M107.41,141.66H153.5a5,5,0,1,0,0-10H107.41a5,5,0,1,0,0,10Z"/><path d="M107.41,167.69h18.48a5,5,0,0,0,0-10.05H107.41a5,5,0,0,0,0,10.05Z"/></svg>